<mxfile host="app.diagrams.net" agent="Mozilla/5.0 (Windows NT 10.0; Win64; x64) AppleWebKit/537.36 (KHTML, like Gecko) Chrome/133.0.0.0 Safari/537.36 Edg/133.0.0.0" version="26.0.14">
  <diagram name="第 1 页" id="UVzifoAgbHxx6-03_Eu1">
    <mxGraphModel dx="1423" dy="743" grid="1" gridSize="10" guides="1" tooltips="1" connect="1" arrows="1" fold="1" page="1" pageScale="1" pageWidth="827" pageHeight="1169" math="1" shadow="0">
      <root>
        <mxCell id="0" />
        <mxCell id="1" parent="0" />
        <mxCell id="IF9AsxunuteXFOSjnz2V-108" value="" style="rounded=0;whiteSpace=wrap;html=1;fillColor=#f5f5f5;fontColor=#333333;strokeColor=none;shadow=1;" vertex="1" parent="1">
          <mxGeometry x="208.05000000000007" y="401.5" width="188.65" height="152.5" as="geometry" />
        </mxCell>
        <mxCell id="IF9AsxunuteXFOSjnz2V-68" value="" style="rounded=1;whiteSpace=wrap;html=1;fillColor=#d5e8d4;strokeColor=none;" vertex="1" parent="1">
          <mxGeometry x="5" y="497.5" width="120" height="50" as="geometry" />
        </mxCell>
        <mxCell id="IF9AsxunuteXFOSjnz2V-62" value="" style="rounded=1;whiteSpace=wrap;html=1;fillColor=#e1d5e7;strokeColor=#FFFFFF;" vertex="1" parent="1">
          <mxGeometry x="4" y="437.5" width="120" height="50" as="geometry" />
        </mxCell>
        <mxCell id="IF9AsxunuteXFOSjnz2V-2" value="&lt;font face=&quot;Times New Roman&quot; style=&quot;font-size: 18px;&quot;&gt;&lt;b&gt;$$v_{1}$$&lt;/b&gt;&lt;/font&gt;" style="ellipse;whiteSpace=wrap;html=1;aspect=fixed;fillColor=#fff2cc;strokeColor=#FFFFFF;strokeWidth=0;align=center;verticalAlign=middle;fontFamily=Helvetica;fontSize=12;fontColor=default;" vertex="1" parent="1">
          <mxGeometry x="17.00000000000003" y="445" width="35" height="35" as="geometry" />
        </mxCell>
        <mxCell id="IF9AsxunuteXFOSjnz2V-3" value="&lt;font face=&quot;Times New Roman&quot; style=&quot;font-size: 18px;&quot;&gt;&lt;b&gt;$$v_{2}$$&lt;/b&gt;&lt;/font&gt;" style="ellipse;whiteSpace=wrap;html=1;aspect=fixed;strokeColor=#d6b656;align=center;verticalAlign=middle;fontFamily=Helvetica;fontSize=12;fillColor=#fff2cc;strokeWidth=0;" vertex="1" parent="1">
          <mxGeometry x="74" y="445" width="35" height="35" as="geometry" />
        </mxCell>
        <mxCell id="IF9AsxunuteXFOSjnz2V-8" value="&lt;font style=&quot;font-size: 18px;&quot;&gt;&lt;b&gt;$$s_{1}$$&lt;/b&gt;&lt;/font&gt;" style="text;strokeColor=none;align=center;fillColor=none;html=1;verticalAlign=middle;whiteSpace=wrap;rounded=0;" vertex="1" parent="1">
          <mxGeometry x="34" y="415.5" width="60" height="22" as="geometry" />
        </mxCell>
        <mxCell id="IF9AsxunuteXFOSjnz2V-58" value="&lt;font face=&quot;Times New Roman&quot; style=&quot;font-size: 18px;&quot;&gt;&lt;b&gt;$$v_{2}$$&lt;/b&gt;&lt;/font&gt;" style="ellipse;whiteSpace=wrap;html=1;aspect=fixed;fillColor=#fff2cc;strokeColor=#FFFFFF;strokeWidth=0;align=center;verticalAlign=middle;fontFamily=Helvetica;fontSize=12;fontColor=default;" vertex="1" parent="1">
          <mxGeometry x="17.00000000000003" y="505" width="35" height="35" as="geometry" />
        </mxCell>
        <mxCell id="IF9AsxunuteXFOSjnz2V-59" value="&lt;font face=&quot;Times New Roman&quot; style=&quot;font-size: 18px;&quot;&gt;&lt;b&gt;$$v_{3}$$&lt;/b&gt;&lt;/font&gt;" style="ellipse;whiteSpace=wrap;html=1;aspect=fixed;strokeColor=#d6b656;align=center;verticalAlign=middle;fontFamily=Helvetica;fontSize=12;fillColor=#fff2cc;strokeWidth=0;" vertex="1" parent="1">
          <mxGeometry x="74" y="505" width="35" height="35" as="geometry" />
        </mxCell>
        <mxCell id="IF9AsxunuteXFOSjnz2V-94" value="" style="rounded=0;whiteSpace=wrap;html=1;fillColor=#f5f5f5;fontColor=#333333;strokeColor=none;shadow=1;" vertex="1" parent="1">
          <mxGeometry x="191.70000000000005" y="419" width="188.65" height="152.5" as="geometry" />
        </mxCell>
        <mxCell id="IF9AsxunuteXFOSjnz2V-95" style="rounded=0;orthogonalLoop=1;jettySize=auto;html=1;exitX=1;exitY=0;exitDx=0;exitDy=0;entryX=0.5;entryY=1;entryDx=0;entryDy=0;" edge="1" source="IF9AsxunuteXFOSjnz2V-98" target="IF9AsxunuteXFOSjnz2V-105" parent="1">
          <mxGeometry relative="1" as="geometry" />
        </mxCell>
        <mxCell id="IF9AsxunuteXFOSjnz2V-96" value="1" style="edgeLabel;html=1;align=center;verticalAlign=middle;resizable=0;points=[];" vertex="1" connectable="0" parent="IF9AsxunuteXFOSjnz2V-95">
          <mxGeometry x="0.0549" y="-1" relative="1" as="geometry">
            <mxPoint as="offset" />
          </mxGeometry>
        </mxCell>
        <mxCell id="IF9AsxunuteXFOSjnz2V-97" value="1" style="rounded=0;orthogonalLoop=1;jettySize=auto;html=1;exitX=0;exitY=0.5;exitDx=0;exitDy=0;entryX=0.5;entryY=1;entryDx=0;entryDy=0;" edge="1" source="IF9AsxunuteXFOSjnz2V-98" target="IF9AsxunuteXFOSjnz2V-102" parent="1">
          <mxGeometry relative="1" as="geometry" />
        </mxCell>
        <mxCell id="IF9AsxunuteXFOSjnz2V-98" value="&lt;font face=&quot;Times New Roman&quot; style=&quot;font-size: 18px;&quot;&gt;&lt;b&gt;$$v_{2}$$&lt;/b&gt;&lt;/font&gt;" style="ellipse;whiteSpace=wrap;html=1;aspect=fixed;strokeColor=#FFFFFF;align=center;verticalAlign=middle;fontFamily=Helvetica;fontSize=12;fontColor=default;fillColor=#ffe6cc;strokeWidth=0;" vertex="1" parent="1">
          <mxGeometry x="278.23" y="527.5" width="35" height="35" as="geometry" />
        </mxCell>
        <mxCell id="IF9AsxunuteXFOSjnz2V-99" value="1" style="rounded=0;orthogonalLoop=1;jettySize=auto;html=1;exitX=1;exitY=1;exitDx=0;exitDy=0;entryX=0;entryY=0;entryDx=0;entryDy=0;" edge="1" source="IF9AsxunuteXFOSjnz2V-102" target="IF9AsxunuteXFOSjnz2V-98" parent="1">
          <mxGeometry relative="1" as="geometry" />
        </mxCell>
        <mxCell id="IF9AsxunuteXFOSjnz2V-100" style="rounded=0;orthogonalLoop=1;jettySize=auto;html=1;entryX=0;entryY=0.5;entryDx=0;entryDy=0;dashed=1;strokeColor=#CC0000;startArrow=classic;startFill=0;endArrow=blockThin;endFill=0;edgeStyle=orthogonalEdgeStyle;curved=1;" edge="1" source="IF9AsxunuteXFOSjnz2V-102" target="IF9AsxunuteXFOSjnz2V-105" parent="1">
          <mxGeometry relative="1" as="geometry" />
        </mxCell>
        <mxCell id="IF9AsxunuteXFOSjnz2V-101" style="edgeStyle=orthogonalEdgeStyle;rounded=0;orthogonalLoop=1;jettySize=auto;html=1;entryX=1.002;entryY=0.701;entryDx=0;entryDy=0;startArrow=halfCircle;startFill=0;endArrow=halfCircle;endFill=0;entryPerimeter=0;curved=1;dashed=1;strokeColor=#97D077;" edge="1" source="IF9AsxunuteXFOSjnz2V-98" target="IF9AsxunuteXFOSjnz2V-105" parent="1">
          <mxGeometry relative="1" as="geometry">
            <mxPoint x="203.58563132923553" y="570.0043686707644" as="sourcePoint" />
            <mxPoint x="281.1156313292289" y="627.5043686707714" as="targetPoint" />
            <Array as="points">
              <mxPoint x="370.35" y="551.5" />
              <mxPoint x="370.35" y="472.5" />
            </Array>
          </mxGeometry>
        </mxCell>
        <mxCell id="IF9AsxunuteXFOSjnz2V-102" value="&lt;font face=&quot;Times New Roman&quot; style=&quot;font-size: 18px;&quot;&gt;&lt;b&gt;$$v_{1}$$&lt;/b&gt;&lt;/font&gt;" style="ellipse;whiteSpace=wrap;html=1;aspect=fixed;fillColor=#fff2cc;strokeColor=#FFFFFF;strokeWidth=0;align=center;verticalAlign=middle;fontFamily=Helvetica;fontSize=12;fontColor=default;" vertex="1" parent="1">
          <mxGeometry x="200.70000000000005" y="470" width="35" height="35" as="geometry" />
        </mxCell>
        <mxCell id="IF9AsxunuteXFOSjnz2V-103" style="rounded=0;orthogonalLoop=1;jettySize=auto;html=1;exitX=0;exitY=1;exitDx=0;exitDy=0;" edge="1" source="IF9AsxunuteXFOSjnz2V-105" target="IF9AsxunuteXFOSjnz2V-98" parent="1">
          <mxGeometry relative="1" as="geometry" />
        </mxCell>
        <mxCell id="IF9AsxunuteXFOSjnz2V-104" value="1" style="edgeLabel;html=1;align=center;verticalAlign=middle;resizable=0;points=[];" vertex="1" connectable="0" parent="IF9AsxunuteXFOSjnz2V-103">
          <mxGeometry x="-0.304" y="-1" relative="1" as="geometry">
            <mxPoint as="offset" />
          </mxGeometry>
        </mxCell>
        <mxCell id="IF9AsxunuteXFOSjnz2V-105" value="&lt;font face=&quot;Times New Roman&quot; style=&quot;font-size: 18px;&quot;&gt;&lt;b&gt;$$v_{3}$$&lt;/b&gt;&lt;/font&gt;" style="ellipse;whiteSpace=wrap;html=1;aspect=fixed;strokeColor=#FFFFFF;align=center;verticalAlign=middle;fontFamily=Helvetica;fontSize=12;fontColor=default;fillColor=#f8cecc;strokeWidth=0;" vertex="1" parent="1">
          <mxGeometry x="322.6500000000001" y="447.5" width="35" height="35" as="geometry" />
        </mxCell>
        <mxCell id="IF9AsxunuteXFOSjnz2V-106" value="&lt;b&gt;&lt;font face=&quot;宋体&quot;&gt;共现图&lt;/font&gt;&lt;/b&gt;" style="text;strokeColor=none;align=center;fillColor=none;html=1;verticalAlign=middle;whiteSpace=wrap;rounded=0;" vertex="1" parent="1">
          <mxGeometry x="195.38000000000005" y="421.5" width="45.65" height="30" as="geometry" />
        </mxCell>
        <mxCell id="IF9AsxunuteXFOSjnz2V-107" value="&lt;i&gt;&lt;font face=&quot;宋体&quot;&gt;约束&lt;/font&gt;&lt;/i&gt;" style="text;strokeColor=none;align=center;fillColor=none;html=1;verticalAlign=middle;whiteSpace=wrap;rounded=0;" vertex="1" parent="1">
          <mxGeometry x="339.35" y="551.5" width="41" height="20" as="geometry" />
        </mxCell>
        <mxCell id="IF9AsxunuteXFOSjnz2V-109" value="&lt;font face=&quot;Times New Roman&quot; style=&quot;font-size: 14px;&quot;&gt;$$L_1$$&lt;/font&gt;" style="text;strokeColor=none;align=center;fillColor=none;html=1;verticalAlign=middle;whiteSpace=wrap;rounded=0;" vertex="1" parent="1">
          <mxGeometry x="351.35" y="421.5" width="29" height="17.5" as="geometry" />
        </mxCell>
        <mxCell id="IF9AsxunuteXFOSjnz2V-110" value="&lt;font face=&quot;Times New Roman&quot; style=&quot;font-size: 14px;&quot;&gt;$$L_{id}$$&lt;/font&gt;" style="text;strokeColor=none;align=center;fillColor=none;html=1;verticalAlign=middle;whiteSpace=wrap;rounded=0;" vertex="1" parent="1">
          <mxGeometry x="371.35" y="400" width="29" height="17.5" as="geometry" />
        </mxCell>
        <mxCell id="IF9AsxunuteXFOSjnz2V-111" value="&lt;font face=&quot;Times New Roman&quot; style=&quot;font-size: 14px;&quot;&gt;...&lt;/font&gt;" style="text;strokeColor=none;align=center;fillColor=none;html=1;verticalAlign=middle;whiteSpace=wrap;rounded=0;rotation=-45;" vertex="1" parent="1">
          <mxGeometry x="375.85" y="417.5" width="20" height="10" as="geometry" />
        </mxCell>
        <mxCell id="IF9AsxunuteXFOSjnz2V-112" value="&lt;font style=&quot;font-size: 18px;&quot; face=&quot;宋体&quot;&gt;序列编码器&lt;/font&gt;" style="rounded=1;whiteSpace=wrap;html=1;fillColor=#dae8fc;strokeColor=none;" vertex="1" parent="1">
          <mxGeometry x="477.88" y="453.5" width="120" height="60" as="geometry" />
        </mxCell>
        <mxCell id="IF9AsxunuteXFOSjnz2V-121" value="&lt;font style=&quot;font-size: 18px;&quot;&gt;&lt;b&gt;$$s_{2}$$&lt;/b&gt;&lt;/font&gt;" style="text;strokeColor=none;align=center;fillColor=none;html=1;verticalAlign=middle;whiteSpace=wrap;rounded=0;" vertex="1" parent="1">
          <mxGeometry x="34" y="547.5" width="60" height="18" as="geometry" />
        </mxCell>
        <mxCell id="IF9AsxunuteXFOSjnz2V-130" value="" style="group" vertex="1" connectable="0" parent="1">
          <mxGeometry x="655.8792355694227" y="439" width="167.04076443057727" height="30" as="geometry" />
        </mxCell>
        <mxCell id="IF9AsxunuteXFOSjnz2V-113" value="" style="group;strokeColor=default;" vertex="1" connectable="0" parent="IF9AsxunuteXFOSjnz2V-130">
          <mxGeometry x="2" y="3.4550215878568906" width="123.44527478660127" height="23.08718169961392" as="geometry" />
        </mxCell>
        <mxCell id="IF9AsxunuteXFOSjnz2V-114" value="" style="group;fillColor=#FFE6CC;container=0;strokeColor=default;" vertex="1" connectable="0" parent="IF9AsxunuteXFOSjnz2V-113">
          <mxGeometry width="122.52730109204374" height="23.08718169961392" as="geometry" />
        </mxCell>
        <mxCell id="IF9AsxunuteXFOSjnz2V-115" value="" style="rounded=0;whiteSpace=wrap;html=1;fillColor=#e1d5e7;strokeColor=default;container=0;" vertex="1" parent="IF9AsxunuteXFOSjnz2V-113">
          <mxGeometry width="24.90392298618776" height="23.08718169961392" as="geometry" />
        </mxCell>
        <mxCell id="IF9AsxunuteXFOSjnz2V-116" value="" style="rounded=0;whiteSpace=wrap;html=1;fillColor=#e1d5e7;container=0;strokeColor=default;" vertex="1" parent="IF9AsxunuteXFOSjnz2V-113">
          <mxGeometry x="98.54135180041348" width="24.90392298618776" height="23.08718169961392" as="geometry" />
        </mxCell>
        <mxCell id="IF9AsxunuteXFOSjnz2V-117" value="" style="rounded=0;whiteSpace=wrap;html=1;fillColor=#B266FF;container=0;strokeColor=default;" vertex="1" parent="IF9AsxunuteXFOSjnz2V-113">
          <mxGeometry x="73.63872252451075" width="24.90392298618776" height="23.08718169961392" as="geometry" />
        </mxCell>
        <mxCell id="IF9AsxunuteXFOSjnz2V-118" value="" style="rounded=0;whiteSpace=wrap;html=1;container=0;strokeColor=default;" vertex="1" parent="IF9AsxunuteXFOSjnz2V-113">
          <mxGeometry x="48.897828596070696" width="24.73789683294651" height="23.08718169961392" as="geometry" />
        </mxCell>
        <mxCell id="IF9AsxunuteXFOSjnz2V-119" value="" style="rounded=0;whiteSpace=wrap;html=1;fillColor=#E5CCFF;container=0;strokeColor=default;" vertex="1" parent="IF9AsxunuteXFOSjnz2V-113">
          <mxGeometry x="24.903922986187716" width="24.73789683294651" height="23.08718169961392" as="geometry" />
        </mxCell>
        <mxCell id="IF9AsxunuteXFOSjnz2V-120" value="&lt;font style=&quot;font-size: 18px;&quot; face=&quot;Times New Roman&quot;&gt;$$s_{1}^{id}$$&lt;/font&gt;" style="text;strokeColor=none;align=center;fillColor=none;html=1;verticalAlign=middle;whiteSpace=wrap;rounded=0;" vertex="1" parent="IF9AsxunuteXFOSjnz2V-130">
          <mxGeometry x="123.44076443057725" width="43.6" height="30" as="geometry" />
        </mxCell>
        <mxCell id="IF9AsxunuteXFOSjnz2V-131" value="" style="group" vertex="1" connectable="0" parent="1">
          <mxGeometry x="655.8792355694227" y="499" width="170.0007644305773" height="29.999999999999943" as="geometry" />
        </mxCell>
        <mxCell id="IF9AsxunuteXFOSjnz2V-122" value="&lt;font style=&quot;font-size: 18px;&quot; face=&quot;Times New Roman&quot;&gt;$$s_{2}^{id}$$&lt;/font&gt;" style="text;strokeColor=none;align=center;fillColor=none;html=1;verticalAlign=middle;whiteSpace=wrap;rounded=0;" vertex="1" parent="IF9AsxunuteXFOSjnz2V-131">
          <mxGeometry x="129.0007644305773" width="41" height="30" as="geometry" />
        </mxCell>
        <mxCell id="IF9AsxunuteXFOSjnz2V-123" value="" style="group;strokeColor=default;fillColor=#999999;container=0;" vertex="1" connectable="0" parent="IF9AsxunuteXFOSjnz2V-131">
          <mxGeometry x="2" y="3.4550215878568906" width="123.44527478660127" height="23.08718169961392" as="geometry" />
        </mxCell>
        <mxCell id="IF9AsxunuteXFOSjnz2V-124" value="" style="group;fillColor=#FFE6CC;container=0;strokeColor=default;" vertex="1" connectable="0" parent="IF9AsxunuteXFOSjnz2V-131">
          <mxGeometry x="2" y="3.4550215878568906" width="122.52730109204374" height="23.08718169961392" as="geometry" />
        </mxCell>
        <mxCell id="IF9AsxunuteXFOSjnz2V-125" value="" style="rounded=0;whiteSpace=wrap;html=1;fillColor=#d5e8d4;strokeColor=default;container=0;" vertex="1" parent="IF9AsxunuteXFOSjnz2V-131">
          <mxGeometry x="2" y="3.4550215878568906" width="24.90392298618776" height="23.08718169961392" as="geometry" />
        </mxCell>
        <mxCell id="IF9AsxunuteXFOSjnz2V-126" value="" style="rounded=0;whiteSpace=wrap;html=1;fillColor=#99FF33;container=0;fontColor=#333333;strokeColor=default;" vertex="1" parent="IF9AsxunuteXFOSjnz2V-131">
          <mxGeometry x="100.54135180041351" y="3.4550215878568906" width="24.90392298618776" height="23.08718169961392" as="geometry" />
        </mxCell>
        <mxCell id="IF9AsxunuteXFOSjnz2V-127" value="" style="rounded=0;whiteSpace=wrap;html=1;fillColor=#99FF99;container=0;strokeColor=default;" vertex="1" parent="IF9AsxunuteXFOSjnz2V-131">
          <mxGeometry x="75.63872252451074" y="3.4550215878568906" width="24.90392298618776" height="23.08718169961392" as="geometry" />
        </mxCell>
        <mxCell id="IF9AsxunuteXFOSjnz2V-128" value="" style="rounded=0;whiteSpace=wrap;html=1;container=0;strokeColor=default;fillColor=#CCCCCC;" vertex="1" parent="IF9AsxunuteXFOSjnz2V-131">
          <mxGeometry x="50.89782859607067" y="3.4550215878568906" width="24.73789683294651" height="23.08718169961392" as="geometry" />
        </mxCell>
        <mxCell id="IF9AsxunuteXFOSjnz2V-129" value="" style="rounded=0;whiteSpace=wrap;html=1;fillColor=#FFFFFF;container=0;strokeColor=default;" vertex="1" parent="IF9AsxunuteXFOSjnz2V-131">
          <mxGeometry x="26.903922986187695" y="3.4550215878568906" width="24.73789683294651" height="23.08718169961392" as="geometry" />
        </mxCell>
        <mxCell id="IF9AsxunuteXFOSjnz2V-132" value="" style="shape=flexArrow;endArrow=classic;html=1;rounded=0;width=5;endSize=5;" edge="1" parent="1">
          <mxGeometry width="50" height="50" relative="1" as="geometry">
            <mxPoint x="607.88" y="479" as="sourcePoint" />
            <mxPoint x="647.88" y="449" as="targetPoint" />
          </mxGeometry>
        </mxCell>
        <mxCell id="IF9AsxunuteXFOSjnz2V-133" value="" style="shape=flexArrow;endArrow=classic;html=1;rounded=0;width=5;endSize=5;" edge="1" parent="1">
          <mxGeometry width="50" height="50" relative="1" as="geometry">
            <mxPoint x="607.88" y="484.5" as="sourcePoint" />
            <mxPoint x="647.88" y="514.5" as="targetPoint" />
          </mxGeometry>
        </mxCell>
        <mxCell id="IF9AsxunuteXFOSjnz2V-134" value="" style="shape=flexArrow;endArrow=classic;html=1;rounded=0;" edge="1" parent="1">
          <mxGeometry width="50" height="50" relative="1" as="geometry">
            <mxPoint x="415" y="483.76" as="sourcePoint" />
            <mxPoint x="465" y="483.76" as="targetPoint" />
          </mxGeometry>
        </mxCell>
        <mxCell id="IF9AsxunuteXFOSjnz2V-135" value="" style="shape=flexArrow;endArrow=classic;html=1;rounded=0;" edge="1" parent="1">
          <mxGeometry width="50" height="50" relative="1" as="geometry">
            <mxPoint x="133.55" y="492.75" as="sourcePoint" />
            <mxPoint x="183.55" y="492.75" as="targetPoint" />
          </mxGeometry>
        </mxCell>
      </root>
    </mxGraphModel>
  </diagram>
</mxfile>
